<?xml version="1.0" encoding="UTF-8"?>
<svg xmlns="http://www.w3.org/2000/svg" version="1.1" viewBox="0 0 256 256">
  <defs>
    <style>
      .cls-1 {
        fill: #e0e0e0;
      }

      .cls-2 {
        fill: #2b2b2b;
      }

      .cls-3 {
        fill: #dfdfdf;
      }

      .cls-4 {
        fill: #efefef;
      }

      .cls-5 {
        fill: #bebebe;
      }

      .cls-6 {
        fill: #f0f0f0;
      }

      .cls-7 {
        fill: #f2f2f2;
      }

      .cls-8 {
        fill: #eee;
      }

      .cls-9 {
        fill: #dcdcdc;
      }

      .cls-10 {
        fill: #fff;
        stroke: #c5c5c5;
        stroke-miterlimit: 10;
      }

      .cls-11 {
        fill: #ececec;
      }
    </style>
  </defs>
  <!-- Generator: Adobe Illustrator 28.6.0, SVG Export Plug-In . SVG Version: 1.2.0 Build 709)  -->
  <g>
    <g id="_图层_1" data-name="图层_1">
      <rect class="cls-10" x="26.3" y="26.2" width="203.7" height="203.7" rx="41.2" ry="41.2"/>
      <path class="cls-5" d="M119.8,184.1c6,0,11.9,0,17.9,0-1.6,3.8-6.1,3.4-9.5,3.4-3.1,0-7.6.6-8.4-3.4Z"/>
      <g id="_x23_f2f2f2ff">
        <path class="cls-7" d="M57.1,72.9c3.4-1.7,7.4-.8,11.1-.9,2.8-.1,5.1,2.3,5,5,0,2.2-2.2,3.4-4,3.8-3.9.4-7.8.2-11.7-.1-2.3-2-3.2-5.9-.4-7.9Z"/>
        <path class="cls-7" d="M186.5,72.3c3.5-.6,7.2-.4,10.7-.1,3.1.2,4.6,3.9,3.7,6.6-2.6,3.1-7.1,2.2-10.7,2.4-2.1-.1-5.2.4-6.2-2-1.8-2.4-.3-5.9,2.4-6.8Z"/>
      </g>
      <g id="_x23_2b2b2bff">
        <path class="cls-2" d="M80.2,74c.1-1.4,1.7-2.1,3-2,30.1,0,60.1,0,90.2,0,4.7,0,2.7,6.2,3.3,9.2.1,6,.5,11.9.5,17.9-.4,3.4-4.7,2.2-7,2.2-.4-1.8-.8-3.7-1.2-5.4-1.1-5.1-3.9-10.4-9-12.4-7.2-2.7-15.1-2.5-22.7-2.8,0,2.4,0,4.8,0,7.1,0,26,0,52.1,0,78.1.1,2.5,0,5.3,1.7,7.3,3.5,2.8,8.4,1.9,12.3,3.5-.2,2,.3,4.1-.4,6-.9,1.6-2.9,1.2-4.4,1.3-2.9,0-5.9,0-8.8,0-6,0-11.9,0-17.9,0-2.9,0-5.8-.1-8.7,0-1.8-.2-4.4.6-5.6-1.3-.7-2.1-.4-4.3,0-6.4,3.7-.5,7.5-.7,10.8-2.3,2.7-1.7,2.7-5.2,2.8-8,0-26.4,0-52.9,0-79.3,0-2,0-4,0-6-7.8.4-15.9.1-23.3,3.1-5.7,2.5-7.9,8.9-9,14.6-.2,1-.4,2-.6,3-2.3-.2-5.5,1-6.9-1.4-.3-5.8.3-11.5.3-17.3.2-2.9,0-5.8.4-8.6Z"/>
      </g>
      <g id="_x23_dfdfdfff">
        <path class="cls-3" d="M95.9,83.8c7.3-3,15.5-2.7,23.3-3.1,0,2,0,4,0,6-7.8-1.3-15.8.3-23,3.4-4.1,1.5-6,5.8-9.2,8.3,1-5.7,3.3-12,9-14.6Z"/>
      </g>
      <g id="_x23_e0e0e0ff">
        <path class="cls-1" d="M137.2,80.8c7.6.3,15.4.2,22.7,2.8,5.1,2,7.9,7.2,9,12.4-3.5-1.4-5.7-4.7-9.1-6.2-3.7-1.6-7.8-2.6-11.8-3.2-3.6-.3-7.6-.8-10.8,1.3,0-2.4,0-4.8,0-7.1Z"/>
      </g>
      <g id="_x23_f0f0f0ff">
        <path class="cls-6" d="M58.4,93.3c3.8-.6,7.8-.7,11.6,0,4.2,1,4,7.4,0,8.4-3.8.6-7.7.7-11.5,0-4.1-1.1-4.1-7.4,0-8.4Z"/>
        <path class="cls-6" d="M186.2,93.1c4.1-.1,8.1-.2,12.2.2,1.5,1.6,3.7,3.8,2.1,6.2-1.5,3.2-5.5,2.5-8.4,2.6-3.1,0-7.6.4-8.7-3.3-1-2.4,1.3-4.1,2.7-5.6Z"/>
      </g>
      <g id="_x23_efefefff">
        <path class="cls-4" d="M58.4,113.3c5.2-1,10.6-.2,15.8-.4,11,.2,22-.3,33,.3,5.2.3,5.1,8.7,0,9-15,.1-30,0-45.1,0-2.6,0-5.9-.4-6.8-3.3-1.2-2.4.6-4.9,3-5.5Z"/>
        <path class="cls-4" d="M148.5,113.3c14.5-.7,29.1,0,43.7-.3,2.5,0,5.5-.5,7.6,1.4,1.6,1.6,1.9,4.7.2,6.3-1.2,1.3-3.1,1-4.7,1.2-14.6,0-29.3,0-43.9,0-2.1,0-4.4-.5-5.7-2.3-1.1-2.4.4-5.6,2.9-6.3Z"/>
      </g>
      <g id="_x23_eeeeeeff">
        <path class="cls-8" d="M55.6,135.8c1.6-1.2,3.5-2.1,5.6-1.9,14.7,0,29.4,0,44,0,2.1-.2,4,.6,5.6,2,0,1.5,0,3.1-.2,4.6-1.7,3-5.5,2.5-8.4,2.5-14.3-.2-28.6.2-42.9-.2-3.7-.1-4.2-4.2-3.7-7Z"/>
        <path class="cls-8" d="M147.5,134.4c1.5-.4,3.1-.3,4.7-.4,14.3,0,28.6,0,42.9,0,1.9.1,4.2-.1,5.4,1.7,2,3-.6,7.4-4.2,7.2-15.4,0-30.8,0-46.1,0-4.8.4-6.4-6.2-2.6-8.6Z"/>
      </g>
      <g id="_x23_eeeeeeff-2" data-name="_x23_eeeeeeff">
        <path class="cls-8" d="M55.6,155c1.6-1.2,3.5-2.1,5.6-1.9,14.7,0,29.4,0,44,0,2.1-.2,4,.6,5.6,2,0,1.5,0,3.1-.2,4.6-1.7,3-5.5,2.5-8.4,2.5-14.3-.2-28.6.2-42.9-.2-3.7-.1-4.2-4.2-3.7-7Z"/>
        <path class="cls-8" d="M147.5,153.6c1.5-.4,3.1-.3,4.7-.4,14.3,0,28.6,0,42.9,0,1.9.1,4.2-.1,5.4,1.7,2,3-.6,7.4-4.2,7.2-15.4,0-30.8,0-46.1,0-4.8.4-6.4-6.2-2.6-8.6Z"/>
      </g>
      <g id="_x23_ecececff">
        <path class="cls-11" d="M58.5,175.4c11.5-.6,23.1-.2,34.7-.2,3.1-.3,6.2,3.3,4.4,6.2-1.3,2.8-4.7,2.8-7.3,2.7-10.3-.2-20.6.1-30.9-.2-4.6-.2-5.4-7.6-.8-8.5Z"/>
        <path class="cls-11" d="M161.4,175.3c10.2-.9,20.5,0,30.8-.4,2.7.2,6.3-.6,8.1,2.1,1.8,2.3.4,6-2.4,6.7-3.5.8-7.2.3-10.7.4-8.3-.1-16.6.3-24.9-.2-4.7-.1-5.4-7.6-.9-8.6Z"/>
      </g>
      <g id="_x23_dcdcdcff">
        <path class="cls-9" d="M111.1,184.1c2.9,0,5.8,0,8.7,0,.8,4,5.3,3.3,8.4,3.4,3.4,0,7.9.4,9.5-3.4,2.9,0,5.9,0,8.8,0,.7,2.1.9,4.8-1.7,5.7-6.5,2.6-13.8,1.2-20.6,1.5-4.9,0-11.4.8-14.3-4.3.4-1,.8-2,1.2-2.9Z"/>
      </g>
    </g>
    <metadata>
      <sfw xmlns="http://ns.adobe.com/SaveForWeb/1.0/">
        <slices/>
        <sliceSourceBounds x="25.83" y="25.61" width="204.72" height="204.72" bottomLeftOrigin="true"/>
      </sfw>
    </metadata>
  </g>
</svg>